<svg xmlns="http://www.w3.org/2000/svg" width="128" height="128" viewBox="0 0 128 128" version="1.1"><path d="M 58.368 1.088 L 55.236 1.996 51.585 6.037 L 47.934 10.078 47.342 13.039 L 46.750 16 32.609 16 L 18.469 16 15.062 17.827 L 11.655 19.655 9.827 23.062 C 7.549 27.309, 7.509 31.163, 9.694 35.767 L 11.387 39.336 16.194 41.366 L 21 43.397 21 79.231 L 21 115.064 22.394 118.400 L 23.788 121.736 27.566 124.618 L 31.344 127.500 64 127.500 L 96.656 127.500 100.434 124.618 L 104.212 121.736 105.606 118.400 L 107 115.064 107 79.231 L 107 43.397 111.806 41.366 L 116.613 39.336 118.306 35.767 C 120.491 31.163, 120.451 27.309, 118.173 23.062 L 116.345 19.655 112.938 17.827 L 109.531 16 95.391 16 L 81.250 16 80.658 13.039 L 80.066 10.078 76.434 6.059 L 72.803 2.040 69.152 1.025 C 64.871 -0.164, 62.642 -0.151, 58.368 1.088 M 39.200 49.200 L 38 50.400 38 78.629 L 38 106.857 39.571 108.429 C 41.744 110.601, 43.610 110.394, 45.443 107.777 L 47 105.555 47 78.712 L 47 51.869 45.965 49.934 L 44.930 48 42.665 48 C 41.419 48, 39.860 48.540, 39.200 49.200 M 61.200 49.200 L 60 50.400 60 79.165 L 60 107.930 62 109 L 64 110.070 66 109 L 68 107.930 68 79.165 L 68 50.400 66.800 49.200 C 66.140 48.540, 64.880 48, 64 48 C 63.120 48, 61.860 48.540, 61.200 49.200 M 82.035 49.934 L 81 51.869 81 79.279 L 81 106.690 82.829 108.345 C 85.112 110.411, 86.426 110.431, 88.429 108.429 L 90 106.857 90 78.629 L 90 50.400 88.800 49.200 C 88.140 48.540, 86.581 48, 85.335 48 L 83.070 48 82.035 49.934" stroke="none" fill="#fbfbfb" fill-rule="evenodd"/></svg>